<svg xmlns="http://www.w3.org/2000/svg" width="264" height="49pt" viewBox="0 0 198 49"><path fill="#fff" d="M31.184 10.285c-5.91-.004-12.075 1.328-18.301 3.055-.79.16-1.563.676-1.969 1.316-.375.602-.512 1.207-.629 1.844-.605 3.387-.531 6.715-.406 10.398.027.844.156 1.848.547 2.454.414.613 1.117 1.003 1.96 1.132 1.083.164 2.16.29 3.239.403l-.238 6.656c-.04.527.222.969.543 1.223.289.218.61.316.937.34.656.05 1.43-.235 1.813-.961 1.68-3.235 2.734-4.66 4.832-6.81 5.48.138 10.261-.167 15.672-.57 1.914-.046 3.23-1.613 3.578-2.863 1.035-3.238 1.199-7.234 1.308-11.277.047-1.602-.508-3.172-1.492-4.004-.937-.758-2.066-1.031-3.105-1.312-2.883-.653-5.766-1.004-8.29-1.024zm7.875 2.531c1.039.282 1.957.555 2.53 1.024.966 1.023.934 1.707.923 2.812-.11 3.918-.297 7.723-1.184 10.606-.383 1.074-1.043 1.84-2.3 1.953-5.516.41-10.301.727-15.844.566a.8.8 0 0 0-.582.23c-2.329 2.352-3.52 3.99-5.297 7.407-.04.078-.13.125-.242.133-.07-.004-.102-.063-.106-.113l.238-7.22a.804.804 0 0 0-.695-.8 73 73 0 0 1-3.871-.477c-.555-.082-.758-.234-.91-.46-.266-.633-.262-1.024-.281-1.63-.126-3.656-.184-6.847.374-10.023.055-.472.231-.953.418-1.351.31-.485.782-.555 1.258-.688 6.086-1.68 12.04-2.937 17.649-2.941 2.75.097 5.633.375 7.922.972m-21.024 6.192c-.84 1.004-.758 2.367-.11 3.281.34.48.868.863 1.509.95.836.07 1.367-.27 1.937-.657 1.035-.898 1.14-2.469.352-3.605a2.18 2.18 0 0 0-1.696-.946c-.898.008-1.507.407-1.992.977m9.07-.82c-.835.027-1.511.605-1.925 1.23-.47.71-.746 1.605-.364 2.484.735 1.684 3.274 1.664 4.286-.05.464-.79.347-1.688 0-2.336-.348-.653-.872-1.184-1.633-1.305a2 2 0 0 0-.364-.023m7.364.156a3 3 0 0 0-.778.086c-1.004.27-1.859 1.304-1.73 2.629.066.668.371 1.32.926 1.765.554.45 1.355.649 2.203.477.972-.2 1.578-.985 1.777-1.742.203-.758.153-1.528-.316-2.153a2.66 2.66 0 0 0-2.082-1.062M19.96 19.586c.184.004.332.062.484.281.34.492.246 1.235-.097 1.535-.34.297-.555.325-.707.305-.149-.023-.301-.125-.438-.316-.258-.368-.336-.961.008-1.387.18-.242.516-.395.75-.418m7.254.172c.027.004.355.195.512.488.156.293.183.563.035.813-.442.75-1.38.546-1.52.222-.055-.125-.015-.625.242-1.011.258-.391.578-.536.73-.512zm8.082.57c.047.067.164.492.074.828-.09.34-.238.547-.598.621-.46.098-.718 0-.914-.156-.191-.156-.324-.422-.351-.707-.07-.703.183-.867.586-.973.465-.117.992.086 1.203.387m18.571-6.894a.9.9 0 0 1 .219-.536.67.67 0 0 1 .535-.238h5.223q.265 0 .547.219a.68.68 0 0 1 .28.555v8.336h8.74v-8.336a.77.77 0 0 1 .793-.773h5.151q.351 0 .614.175.265.176.265.562V38q-.001.386-.23.578-.228.194-.598.195h-5.203a.85.85 0 0 1-.574-.195q-.218-.192-.219-.578v-9.988h-8.738V38q.001.37-.238.57-.236.204-.641.203h-5.172q-.737 0-.754-.687zm48.11 25.039a1.1 1.1 0 0 1-.485.246 2.4 2.4 0 0 1-.484.054h-2.656q-.316-.001-.543-.113a1.2 1.2 0 0 1-.387-.308 1.8 1.8 0 0 1-.266-.442 4 4 0 0 1-.176-.508l-.543-2.25c-.175.364-.433.774-.765 1.239a6.7 6.7 0 0 1-1.274 1.3 7 7 0 0 1-1.847 1.02q-1.072.415-2.461.414-2.004 0-3.64-.773a8.4 8.4 0 0 1-2.79-2.11c-.765-.89-1.36-1.933-1.781-3.12a11.3 11.3 0 0 1-.633-3.81V17.797c0-.445.094-.785.29-1.012.19-.23.5-.344.921-.344h4.063q.753.001 1.039.254c.187.172.28.5.28.996v11.446q0 .755.34 1.433a4.28 4.28 0 0 0 2.18 2.012q.715.3 1.454.3.633 0 1.308-.3.678-.3 1.25-.797.57-.505.942-1.18.368-.679.367-1.433v-11.43q.001-.299.113-.597a.96.96 0 0 1 .344-.457 1.7 1.7 0 0 1 .43-.196q.204-.051.468-.05h3.973q.756-.002 1.09.367.334.371.336.988v19.676q0 .332-.153.613a1.1 1.1 0 0 1-.41.441zm20.414-2.426q-.477.474-1.047 1.02-.573.545-1.258 1.019-.686.474-1.477.785a4.7 4.7 0 0 1-1.707.305q-2.39.001-4.402-.895a10.5 10.5 0 0 1-3.465-2.453c-.969-1.039-1.722-2.262-2.27-3.668q-.815-2.11-.816-4.535.001-2.444.817-4.547c.546-1.398 1.3-2.617 2.27-3.656a10.4 10.4 0 0 1 3.464-2.445q2.011-.886 4.402-.887a5.3 5.3 0 0 1 1.77.281 6.5 6.5 0 0 1 1.457.719c.441.297.844.625 1.215.996.367.367.719.73 1.047 1.082v-8.04q0-.561.34-.948.345-.387 1.03-.387h3.958q.228.002.48.098.258.098.469.273t.34.422q.134.245.133.543v26.289q0 1.354-1.422 1.355h-3.45q-.35 0-.542-.09a.8.8 0 0 1-.325-.253 1.6 1.6 0 0 1-.238-.422q-.106-.254-.266-.59zm-10.114-8.422q0 1.159.364 2.172a5.1 5.1 0 0 0 1.027 1.75q.666.74 1.61 1.168.938.432 2.081.43 1.125.001 2.121-.403.992-.403 1.73-1.117a5.6 5.6 0 0 0 1.188-1.68 5.5 5.5 0 0 0 .5-2.074v-.246q0-1.125-.421-2.145a5.7 5.7 0 0 0-1.168-1.793 5.6 5.6 0 0 0-1.758-1.222 5.3 5.3 0 0 0-2.192-.45q-1.143 0-2.082.45a4.8 4.8 0 0 0-1.609 1.223 5.5 5.5 0 0 0-1.027 1.792 6.3 6.3 0 0 0-.364 2.145m37.278 8.422q-.474.474-1.047 1.02-.57.545-1.254 1.019-.685.474-1.48.785a4.7 4.7 0 0 1-1.704.305q-2.39.001-4.406-.895a10.6 10.6 0 0 1-3.46-2.453q-1.455-1.559-2.27-3.668-.819-2.11-.817-4.535-.002-2.444.817-4.547a11.3 11.3 0 0 1 2.27-3.656 10.4 10.4 0 0 1 3.46-2.445q2.016-.886 4.406-.887.969 0 1.766.281a6.5 6.5 0 0 1 1.46.719c.438.297.845.625 1.212.996q.555.552 1.047 1.082v-8.04q.002-.561.343-.948.343-.387 1.028-.387h3.957q.227.002.484.098.253.098.465.273c.14.117.258.258.344.422q.134.245.133.543v26.289q-.001 1.354-1.426 1.355h-3.446q-.352 0-.546-.09a.86.86 0 0 1-.325-.253 1.8 1.8 0 0 1-.238-.422q-.104-.254-.262-.59zm-10.11-8.422q0 1.159.36 2.172a5.2 5.2 0 0 0 1.03 1.75q.669.74 1.606 1.168.945.432 2.086.43a5.6 5.6 0 0 0 2.118-.403 5.4 5.4 0 0 0 1.734-1.117 5.6 5.6 0 0 0 1.187-1.68 5.5 5.5 0 0 0 .5-2.074v-.246a5.66 5.66 0 0 0-1.594-3.938 5.5 5.5 0 0 0-1.757-1.222 5.3 5.3 0 0 0-2.188-.45q-1.142 0-2.086.45a4.85 4.85 0 0 0-1.605 1.223 5.6 5.6 0 0 0-1.031 1.792 6.4 6.4 0 0 0-.36 2.145m21.54-16.477q0-.562.28-.949.282-.386.97-.386h4.308q.174-.002.367.097.195.094.36.27.17.176.28.422.118.247.118.546v26.27q-.002.67-.379 1.012-.38.344-.976.343h-4.079q-.686.001-.968-.343c-.188-.227-.282-.567-.282-1.012zm29.609 24.954a11.7 11.7 0 0 1-3.48 2.222q-1.936.802-4.098.801-2.407 0-4.551-.879a11.8 11.8 0 0 1-3.766-2.437 11.7 11.7 0 0 1-2.566-3.664q-.95-2.111-.95-4.59 0-1.548.38-3a11.8 11.8 0 0 1 1.07-2.715 11.7 11.7 0 0 1 1.687-2.332 10.8 10.8 0 0 1 4.899-2.996q1.441-.422 3.043-.422 1.456 0 2.832.387a11.04 11.04 0 0 1 4.781 2.777 11.4 11.4 0 0 1 1.723 2.156q.719 1.166 1.117 2.496.393 1.326.394 2.735.001.912-.027 1.492-.023.58-.27.926-.246.341-.82.472-.57.134-1.68.133h-12.66q.177 1.126.715 1.883.535.757 1.238 1.203.706.449 1.497.64a6.3 6.3 0 0 0 1.492.196q.633.001 1.3-.133a9 9 0 0 0 1.293-.351 7.3 7.3 0 0 0 1.145-.508q.518-.294.836-.61.281-.228.48-.34a.86.86 0 0 1 .434-.117q.23.001.465.16.238.159.535.458l1.863 2.109q.194.227.246.414.055.184.055.379a.98.98 0 0 1-.195.605q-.194.254-.457.45m-8.457-14.649q-.685-.001-1.328.274-.64.27-1.204.726a6.4 6.4 0 0 0-1.011 1.04 6.5 6.5 0 0 0-.73 1.179h8.988a11 11 0 0 0-.801-1.266 5.6 5.6 0 0 0-.985-1.023 4.3 4.3 0 0 0-1.265-.684q-.715-.246-1.664-.246m0 0"/></svg>